<?xml version="1.0" encoding="UTF-8"?> <svg xmlns="http://www.w3.org/2000/svg" width="25" height="24" viewBox="0 0 25 24" fill="none"><path d="M8.06938 1.99902C5.20868 1.99902 2.67048 4.01172 2.10068 6.78022C1.98928 7.32123 2.34098 7.85642 2.88188 7.96782C3.42278 8.07912 3.95808 7.72742 4.06938 7.18652C4.44878 5.34312 6.16248 3.99902 8.06938 3.99902C8.62168 3.99902 9.06938 3.55132 9.06938 2.99902C9.06938 2.44672 8.62168 1.99902 8.06938 1.99902ZM16.0694 1.99902C15.5171 1.99902 15.0694 2.44672 15.0694 2.99902C15.0694 3.55132 15.5171 3.99902 16.0694 3.99902C17.9785 3.99902 19.7237 5.34022 20.1007 7.18652C20.2111 7.72762 20.747 8.07822 21.2882 7.96782C21.8293 7.85732 22.1799 7.32142 22.0694 6.78022C21.5032 4.00732 18.9335 1.99902 16.0694 1.99902ZM12.0694 3.99902C7.09878 3.99902 3.06938 8.02842 3.06938 12.999C3.06938 15.1096 3.82158 17.0892 5.03818 18.624L3.38188 20.2802C2.99138 20.6708 2.99138 21.3272 3.38188 21.7178C3.77238 22.1083 4.39758 22.077 4.78818 21.6865L6.44438 20.0302C7.97918 21.2468 9.95878 21.999 12.0694 21.999C14.18 21.999 16.1596 21.2156 17.6944 19.999L19.3819 21.7178C19.7724 22.1083 20.3976 22.077 20.7882 21.6865C21.1787 21.296 21.1474 20.6708 20.7569 20.2802L19.1007 18.5928C20.2992 17.1397 21.0694 15.1096 21.0694 12.999C21.0694 8.02842 17.04 3.99902 12.0694 3.99902ZM12.0694 5.99902C15.9354 5.99902 19.0694 9.13303 19.0694 12.999C19.0694 16.865 15.9354 19.999 12.0694 19.999C8.20338 19.999 5.06938 16.865 5.06938 12.999C5.06938 9.13303 8.20338 5.99902 12.0694 5.99902ZM12.0694 7.99902C11.5171 7.99902 11.0694 8.44672 11.0694 8.99903V11.999H8.06938C7.51708 11.999 7.06938 12.4467 7.06938 12.999C7.06938 13.5513 7.51708 13.999 8.06938 13.999H12.0694C12.6217 13.999 13.0694 13.5513 13.0694 12.999V8.99903C13.0694 8.44672 12.6217 7.99902 12.0694 7.99902Z" fill="#1C1C1C"></path></svg> 