<?xml version="1.0" encoding="UTF-8"?> <svg xmlns="http://www.w3.org/2000/svg" width="25" height="24" viewBox="0 0 25 24" fill="none"><path d="M8.24976 2.01416C7.69776 2.01416 7.24976 2.46216 7.24976 3.01416C5.03876 3.01416 3.21875 4.80716 3.21875 7.01416V9.01416L3.24976 17.0142C3.24976 19.2202 5.04076 21.0142 7.24976 21.0142H17.2498C19.4588 21.0142 21.2498 19.2232 21.2498 17.0142L21.2187 9.01416V7.01416C21.2187 4.80316 19.4568 3.01416 17.2498 3.01416C17.2498 2.46216 16.8028 2.01416 16.2498 2.01416C15.6978 2.01416 15.2498 2.46216 15.2498 3.01416H9.24975C9.24975 2.46216 8.80276 2.01416 8.24976 2.01416ZM7.24976 5.01416C7.24976 5.56616 7.69776 6.01416 8.24976 6.01416C8.80276 6.01416 9.24975 5.56616 9.24975 5.01416H15.2498C15.2498 5.56616 15.6978 6.01416 16.2498 6.01416C16.8028 6.01416 17.2498 5.56616 17.2498 5.01416C18.3468 5.01416 19.2187 5.90216 19.2187 7.01416V8.01416C17.2947 8.01416 7.14275 8.01416 5.21875 8.01416V7.01416C5.21875 5.91716 6.13776 5.01416 7.24976 5.01416ZM5.21875 10.0142C7.14275 10.0142 17.2947 10.0142 19.2187 10.0142L19.2498 17.0142C19.2498 18.1152 18.3548 19.0142 17.2498 19.0142H7.24976C6.14576 19.0142 5.24976 18.1192 5.24976 17.0142L5.21875 10.0142Z" fill="#1C1C1C"></path></svg> 